<svg width="73" height="84" viewBox="0 0 73 84" fill="none" xmlns="http://www.w3.org/2000/svg">
<g filter="url(#filter0_d_43507_50)">
<path d="M65.6 22.4625H65.5H40.8C54.6 15.5576 55.7 11.1546 55.2 8.75288C54 4.75007 49.5 1.74797 45.2 3.34909C39.6 5.45056 38.1 13.7564 36.6 19.7606C34.6 13.6563 32.8 5.95091 28.4 2.04818C27.1 0.947407 25.3 -0.253434 22.6 0.0467764C18.6 0.447057 12.8 5.45056 15.1 11.0545C17.4 16.4583 24.8 19.8607 29.7 22.5626H7.7H7.4C5.8 22.5626 4.5 23.8635 4.5 25.4646V36.7725C4.5 38.3736 5.8 39.6745 7.4 39.6745H7.7V72.9979V75.3996V76H65.5V75.4996V72.9979V39.5745H65.6C67.2 39.5745 68.5 38.2736 68.5 36.6724V25.3645C68.5 23.7634 67.2 22.4625 65.6 22.4625ZM46.9 5.85084C49 5.55063 51.9 7.15176 52.2 9.05309C52.6 11.8551 48.8 14.3568 47.1 15.4576C44.6 17.1588 42.2 18.0594 39.8 19.5604C40.7 15.8579 42.3 6.55133 46.9 5.85084ZM24 15.8579C21.8 14.3568 17.5 11.4548 17.6 8.05239C17.7 4.44986 23.3 1.44776 26.4 4.14965C30.3 7.55203 32.1 15.2574 33.5 20.7613C30.3 19.2602 27.2 17.9593 24 15.8579ZM30 72.9979H10.6V39.5745H30V72.9979ZM30 36.4723H7.5V25.4646H30V36.4723ZM40.2 36.4723V39.4744V72.9979H33V39.5745V36.5724V25.5647H40.2V36.4723ZM62.5 72.9979H43.1V39.5745H62.5V72.9979ZM65.4 36.4723H43.1V25.4646H65.4V36.4723Z" fill="#83B3D3"/>
</g>
<defs>
<filter id="filter0_d_43507_50" x="0.5" y="0" width="72" height="84" filterUnits="userSpaceOnUse" color-interpolation-filters="sRGB">
<feFlood flood-opacity="0" result="BackgroundImageFix"/>
<feColorMatrix in="SourceAlpha" type="matrix" values="0 0 0 0 0 0 0 0 0 0 0 0 0 0 0 0 0 0 127 0" result="hardAlpha"/>
<feOffset dy="4"/>
<feGaussianBlur stdDeviation="2"/>
<feComposite in2="hardAlpha" operator="out"/>
<feColorMatrix type="matrix" values="0 0 0 0 0 0 0 0 0 0 0 0 0 0 0 0 0 0 0.25 0"/>
<feBlend mode="normal" in2="BackgroundImageFix" result="effect1_dropShadow_43507_50"/>
<feBlend mode="normal" in="SourceGraphic" in2="effect1_dropShadow_43507_50" result="shape"/>
</filter>
</defs>
</svg>
